M48
METRIC,LZ,000.000
;FILE_FORMAT=3:3
;TYPE=PLATED
;Layer: PTH_Through
;EasyEDA v6.5.22, 2023-02-07 10:05:31
;24e3a34850004dcea71f034b172b0f1c,75b3b602af0e4f63a68ccc19c93352f5,10
;Gerber Generator version 0.2
;Holesize 1 = 0.351 mm
T01C0.351
;Holesize 2 = 1.301 mm
T02C1.301
%
G05
G90
T01
X-000550Y001280
X-000550Y000640
X-000550Y000000
X-000550Y-000640
X-000550Y-001280
X-000550Y-001920
X000640Y001280
X000640Y000640
X000640Y000000
X000640Y-000640
X000640Y-001280
X000640Y-001920
X029990Y-001920
X029990Y-001280
X029990Y-000640
X029990Y000000
X029990Y000640
X029990Y001280
X028800Y-001920
X028800Y-001280
X028800Y-000640
X028800Y000000
X028800Y000640
X028800Y001280
T02
X010625Y-002847
X007778Y-007778
X010625Y002847
X007778Y007778
X002847Y010625
X-002847Y010625
X-010625Y002847
X-010625Y-002847
X-002847Y-010625
X002847Y-010625
X-007778Y-007778
X-007778Y007778
X-002828Y-002828
X039975Y-002847
X037128Y-007778
X039975Y002847
X037128Y007778
X032197Y010625
X026503Y010625
X018725Y002847
X018725Y-002847
X026503Y-010625
X032197Y-010625
X021572Y-007778
X021572Y007778
X026522Y-002828
M30
