G04 Layer: TopSilkscreenLayer*
G04 EasyEDA v6.5.22, 2023-02-07 10:05:31*
G04 24e3a34850004dcea71f034b172b0f1c,75b3b602af0e4f63a68ccc19c93352f5,10*
G04 Gerber Generator version 0.2*
G04 Scale: 100 percent, Rotated: No, Reflected: No *
G04 Dimensions in millimeters *
G04 leading zeros omitted , absolute positions ,4 integer and 5 decimal *
%FSLAX45Y45*%
%MOMM*%

%ADD10C,0.2032*%
%ADD11C,0.2540*%

%LPD*%
D10*
X-320039Y-599947D02*
G01*
X-301497Y-590550D01*
X-273812Y-562863D01*
X-273812Y-756920D01*
X-758697Y-417068D02*
G01*
X-758697Y-407923D01*
X-749554Y-389381D01*
X-740410Y-380237D01*
X-721868Y-370839D01*
X-684784Y-370839D01*
X-666495Y-380237D01*
X-657097Y-389381D01*
X-647954Y-407923D01*
X-647954Y-426465D01*
X-657097Y-444754D01*
X-675639Y-472439D01*
X-768095Y-564895D01*
X-638810Y-564895D01*
X-877570Y-51054D02*
G01*
X-775970Y-51054D01*
X-831342Y-124968D01*
X-803655Y-124968D01*
X-785113Y-134112D01*
X-775970Y-143255D01*
X-766571Y-170942D01*
X-766571Y-189484D01*
X-775970Y-217170D01*
X-794257Y-235712D01*
X-822197Y-244855D01*
X-849884Y-244855D01*
X-877570Y-235712D01*
X-886713Y-226568D01*
X-895857Y-208026D01*
X-803655Y204978D02*
G01*
X-895857Y75692D01*
X-757428Y75692D01*
X-803655Y204978D02*
G01*
X-803655Y11176D01*
X-593089Y589026D02*
G01*
X-685545Y589026D01*
X-694689Y505968D01*
X-685545Y515112D01*
X-657860Y524510D01*
X-630173Y524510D01*
X-602487Y515112D01*
X-583945Y496570D01*
X-574802Y468884D01*
X-574802Y450595D01*
X-583945Y422910D01*
X-602487Y404368D01*
X-630173Y394970D01*
X-657860Y394970D01*
X-685545Y404368D01*
X-694689Y413512D01*
X-704087Y432054D01*
X-209042Y753363D02*
G01*
X-218439Y771905D01*
X-246126Y781050D01*
X-264668Y781050D01*
X-292354Y771905D01*
X-310642Y744220D01*
X-320039Y697992D01*
X-320039Y651763D01*
X-310642Y614679D01*
X-292354Y596392D01*
X-264668Y586994D01*
X-255270Y586994D01*
X-227584Y596392D01*
X-209042Y614679D01*
X-199897Y642620D01*
X-199897Y651763D01*
X-209042Y679450D01*
X-227584Y697992D01*
X-255270Y707136D01*
X-264668Y707136D01*
X-292354Y697992D01*
X-310642Y679450D01*
X-320039Y651763D01*
X257302Y781050D02*
G01*
X164845Y586994D01*
X128015Y781050D02*
G01*
X257302Y781050D01*
X494284Y525018D02*
G01*
X466597Y515873D01*
X457200Y497331D01*
X457200Y478789D01*
X466597Y460502D01*
X484886Y451104D01*
X521970Y441960D01*
X549655Y432562D01*
X568197Y414273D01*
X577342Y395731D01*
X577342Y368045D01*
X568197Y349504D01*
X558800Y340360D01*
X531113Y330962D01*
X494284Y330962D01*
X466597Y340360D01*
X457200Y349504D01*
X448055Y368045D01*
X448055Y395731D01*
X457200Y414273D01*
X475742Y432562D01*
X503428Y441960D01*
X540257Y451104D01*
X558800Y460502D01*
X568197Y478789D01*
X568197Y497331D01*
X558800Y515873D01*
X531113Y525018D01*
X494284Y525018D01*
X695959Y204470D02*
G01*
X686815Y176784D01*
X668274Y158242D01*
X640587Y149097D01*
X631444Y149097D01*
X603757Y158242D01*
X585215Y176784D01*
X576071Y204470D01*
X576071Y213613D01*
X585215Y241300D01*
X603757Y259842D01*
X631444Y268986D01*
X640587Y268986D01*
X668274Y259842D01*
X686815Y241300D01*
X695959Y204470D01*
X695959Y158242D01*
X686815Y112013D01*
X668274Y84328D01*
X640587Y75184D01*
X622300Y75184D01*
X594360Y84328D01*
X585215Y102870D01*
X576071Y-87884D02*
G01*
X594360Y-78739D01*
X622300Y-51054D01*
X622300Y-244855D01*
X738631Y-51054D02*
G01*
X710945Y-60197D01*
X692404Y-87884D01*
X683259Y-134112D01*
X683259Y-161797D01*
X692404Y-208026D01*
X710945Y-235712D01*
X738631Y-244855D01*
X756920Y-244855D01*
X784859Y-235712D01*
X803147Y-208026D01*
X812545Y-161797D01*
X812545Y-134112D01*
X803147Y-87884D01*
X784859Y-60197D01*
X756920Y-51054D01*
X738631Y-51054D01*
X448055Y-343915D02*
G01*
X466597Y-334771D01*
X494284Y-306831D01*
X494284Y-500887D01*
X555244Y-343915D02*
G01*
X573531Y-334771D01*
X601218Y-306831D01*
X601218Y-500887D01*
X128015Y-599947D02*
G01*
X146557Y-590550D01*
X174244Y-562863D01*
X174244Y-756920D01*
X244347Y-609092D02*
G01*
X244347Y-599947D01*
X253492Y-581405D01*
X262889Y-572262D01*
X281431Y-562863D01*
X318262Y-562863D01*
X336804Y-572262D01*
X345947Y-581405D01*
X355092Y-599947D01*
X355092Y-618489D01*
X345947Y-636778D01*
X327405Y-664463D01*
X235204Y-756920D01*
X364489Y-756920D01*
X9913Y1036718D02*
G01*
X-64000Y842916D01*
X9913Y1036718D02*
G01*
X83827Y842916D01*
X-36314Y907432D02*
G01*
X56141Y907432D01*
X2614929Y-599947D02*
G01*
X2633472Y-590550D01*
X2661158Y-562863D01*
X2661158Y-756920D01*
X2731261Y-609092D02*
G01*
X2731261Y-599947D01*
X2740659Y-581405D01*
X2749804Y-572262D01*
X2768345Y-562863D01*
X2805175Y-562863D01*
X2823718Y-572262D01*
X2832861Y-581405D01*
X2842259Y-599947D01*
X2842259Y-618489D01*
X2832861Y-636778D01*
X2814574Y-664463D01*
X2722118Y-756920D01*
X2851404Y-756920D01*
X2167127Y-407923D02*
G01*
X2185415Y-398779D01*
X2213102Y-370839D01*
X2213102Y-564895D01*
X2274061Y-407923D02*
G01*
X2292604Y-398779D01*
X2320290Y-370839D01*
X2320290Y-564895D01*
X2039111Y-87884D02*
G01*
X2057400Y-78739D01*
X2085086Y-51054D01*
X2085086Y-244855D01*
X2201672Y-51054D02*
G01*
X2173731Y-60197D01*
X2155443Y-87884D01*
X2146045Y-134112D01*
X2146045Y-161797D01*
X2155443Y-208026D01*
X2173731Y-235712D01*
X2201672Y-244855D01*
X2219959Y-244855D01*
X2247645Y-235712D01*
X2266188Y-208026D01*
X2275331Y-161797D01*
X2275331Y-134112D01*
X2266188Y-87884D01*
X2247645Y-60197D01*
X2219959Y-51054D01*
X2201672Y-51054D01*
X2159000Y140462D02*
G01*
X2149856Y112776D01*
X2131313Y94234D01*
X2103627Y85089D01*
X2094484Y85089D01*
X2066797Y94234D01*
X2048256Y112776D01*
X2039111Y140462D01*
X2039111Y149605D01*
X2048256Y177292D01*
X2066797Y195834D01*
X2094484Y204978D01*
X2103627Y204978D01*
X2131313Y195834D01*
X2149856Y177292D01*
X2159000Y140462D01*
X2159000Y94234D01*
X2149856Y48005D01*
X2131313Y20320D01*
X2103627Y11176D01*
X2085086Y11176D01*
X2057400Y20320D01*
X2048256Y38862D01*
X2277109Y589026D02*
G01*
X2249424Y579881D01*
X2240279Y561339D01*
X2240279Y542797D01*
X2249424Y524510D01*
X2267965Y515112D01*
X2304795Y505968D01*
X2332481Y496570D01*
X2351024Y478281D01*
X2360168Y459739D01*
X2360168Y432054D01*
X2351024Y413512D01*
X2341879Y404368D01*
X2314193Y394970D01*
X2277109Y394970D01*
X2249424Y404368D01*
X2240279Y413512D01*
X2230881Y432054D01*
X2230881Y459739D01*
X2240279Y478281D01*
X2258568Y496570D01*
X2286508Y505968D01*
X2323338Y515112D01*
X2341879Y524510D01*
X2351024Y542797D01*
X2351024Y561339D01*
X2341879Y579881D01*
X2314193Y589026D01*
X2277109Y589026D01*
X2744215Y781050D02*
G01*
X2652013Y586994D01*
X2614929Y781050D02*
G01*
X2744215Y781050D01*
X3173729Y753363D02*
G01*
X3164586Y771905D01*
X3136900Y781050D01*
X3118358Y781050D01*
X3090672Y771905D01*
X3072129Y744220D01*
X3062986Y697992D01*
X3062986Y651763D01*
X3072129Y614679D01*
X3090672Y596392D01*
X3118358Y586994D01*
X3127756Y586994D01*
X3155441Y596392D01*
X3173729Y614679D01*
X3183127Y642620D01*
X3183127Y651763D01*
X3173729Y679450D01*
X3155441Y697992D01*
X3127756Y707136D01*
X3118358Y707136D01*
X3090672Y697992D01*
X3072129Y679450D01*
X3062986Y651763D01*
X3493770Y525018D02*
G01*
X3401568Y525018D01*
X3392170Y441960D01*
X3401568Y451104D01*
X3429254Y460502D01*
X3456940Y460502D01*
X3484625Y451104D01*
X3503168Y432562D01*
X3512311Y404876D01*
X3512311Y386587D01*
X3503168Y358902D01*
X3484625Y340360D01*
X3456940Y330962D01*
X3429254Y330962D01*
X3401568Y340360D01*
X3392170Y349504D01*
X3383025Y368045D01*
X3603243Y268986D02*
G01*
X3511041Y139700D01*
X3649472Y139700D01*
X3603243Y268986D02*
G01*
X3603243Y75184D01*
X3529584Y-51054D02*
G01*
X3631184Y-51054D01*
X3575558Y-124968D01*
X3603243Y-124968D01*
X3621786Y-134112D01*
X3631184Y-143255D01*
X3640327Y-170942D01*
X3640327Y-189484D01*
X3631184Y-217170D01*
X3612641Y-235712D01*
X3584956Y-244855D01*
X3557270Y-244855D01*
X3529584Y-235712D01*
X3520186Y-226568D01*
X3511041Y-208026D01*
X3392170Y-353060D02*
G01*
X3392170Y-343915D01*
X3401568Y-325373D01*
X3410711Y-316229D01*
X3429254Y-306831D01*
X3466084Y-306831D01*
X3484625Y-316229D01*
X3493770Y-325373D01*
X3503168Y-343915D01*
X3503168Y-362457D01*
X3493770Y-380745D01*
X3475481Y-408431D01*
X3383025Y-500887D01*
X3512311Y-500887D01*
X3062986Y-599947D02*
G01*
X3081527Y-590550D01*
X3109213Y-562863D01*
X3109213Y-756920D01*
X2879928Y1037051D02*
G01*
X2879928Y842995D01*
X2879928Y1037051D02*
G01*
X2963240Y1037051D01*
X2990926Y1027907D01*
X3000070Y1018509D01*
X3009214Y1000221D01*
X3009214Y981679D01*
X3000070Y963137D01*
X2990926Y953993D01*
X2963240Y944595D01*
X2879928Y944595D02*
G01*
X2963240Y944595D01*
X2990926Y935451D01*
X3000070Y926307D01*
X3009214Y907765D01*
X3009214Y880079D01*
X3000070Y861537D01*
X2990926Y852393D01*
X2963240Y842995D01*
X2879928Y842995D01*
D11*
G75*
G01
X1099998Y0D02*
G03X1099998Y0I-1099998J0D01*
G75*
G01
X399999Y0D02*
G03X399999Y0I-399999J0D01*
G75*
G01
X4034993Y0D02*
G03X4034993Y0I-1099998J0D01*
G75*
G01
X3334995Y0D02*
G03X3334995Y0I-399999J0D01*
X-127990Y256006D02*
G01*
X0Y256006D01*
X0Y-319989D01*
X-127990Y-319989D01*
X-127990Y256006D01*
X2815996Y256006D02*
G01*
X2943986Y256006D01*
X2943986Y-319989D01*
X2815996Y-319989D01*
X2815996Y256006D01*
M02*
