G04 Layer: BottomLayer*
G04 EasyEDA v6.5.22, 2023-02-07 10:05:31*
G04 24e3a34850004dcea71f034b172b0f1c,75b3b602af0e4f63a68ccc19c93352f5,10*
G04 Gerber Generator version 0.2*
G04 Scale: 100 percent, Rotated: No, Reflected: No *
G04 Dimensions in millimeters *
G04 leading zeros omitted , absolute positions ,4 integer and 5 decimal *
%FSLAX45Y45*%
%MOMM*%

%ADD10C,1.8000*%
%ADD11C,0.3500*%

%LPD*%
D10*
G01*
X1062507Y-284708D03*
G01*
X777798Y-777798D03*
G01*
X1062507Y284708D03*
G01*
X777798Y777798D03*
G01*
X284708Y1062507D03*
G01*
X-284708Y1062507D03*
G01*
X-1062507Y284708D03*
G01*
X-1062507Y-284708D03*
G01*
X-284708Y-1062507D03*
G01*
X284708Y-1062507D03*
G01*
X-777798Y-777798D03*
G01*
X-777798Y777798D03*
G01*
X-282803Y-282803D03*
G01*
X3997502Y-284708D03*
G01*
X3712794Y-777798D03*
G01*
X3997502Y284708D03*
G01*
X3712794Y777798D03*
G01*
X3219704Y1062507D03*
G01*
X2650286Y1062507D03*
G01*
X1872488Y284708D03*
G01*
X1872488Y-284708D03*
G01*
X2650286Y-1062507D03*
G01*
X3219704Y-1062507D03*
G01*
X2157196Y-777798D03*
G01*
X2157196Y777798D03*
G01*
X2652191Y-282803D03*
D11*
G01*
X-54990Y127990D03*
G01*
X-54990Y64007D03*
G01*
X-54990Y0D03*
G01*
X-54990Y-64007D03*
G01*
X-54990Y-127990D03*
G01*
X-54990Y-191998D03*
G01*
X64007Y127990D03*
G01*
X64007Y64007D03*
G01*
X64007Y0D03*
G01*
X64007Y-64007D03*
G01*
X64007Y-127990D03*
G01*
X64007Y-191998D03*
G01*
X2999003Y-191998D03*
G01*
X2999003Y-127990D03*
G01*
X2999003Y-64007D03*
G01*
X2999003Y0D03*
G01*
X2999003Y64007D03*
G01*
X2999003Y127990D03*
G01*
X2880004Y-191998D03*
G01*
X2880004Y-127990D03*
G01*
X2880004Y-64007D03*
G01*
X2880004Y0D03*
G01*
X2880004Y64007D03*
G01*
X2880004Y127990D03*
M02*
